<svg width="175" height="141" viewBox="0 0 175 141" fill="none" xmlns="http://www.w3.org/2000/svg">
<path d="M118.955 83.2996C119.859 77.2102 119.589 76.3168 125.195 77.3028L126.619 77.4046C130.93 77.5632 136.571 76.8434 139.883 75.5982C147.015 72.9215 151.244 68.4499 144.212 69.6245C128.168 72.3012 127.065 67.9083 127.065 67.9083C144.007 47.5743 151.09 21.763 144.977 15.4445C128.305 -1.78925 99.4451 6.36008 98.9616 6.57186L98.8071 6.59616C95.637 6.06267 92.0906 5.74558 88.1051 5.69351C80.845 5.59746 75.336 7.2338 71.1573 9.79711C71.1573 9.79711 19.673 -7.3614 22.0678 31.3751C22.577 39.6159 36.6695 93.7299 53.4771 77.385C59.6199 71.4089 65.5567 66.3552 65.5567 66.3552C68.5051 67.9395 72.0342 68.7473 75.7365 68.4568L76.0226 68.2601C75.9339 69.0019 75.9726 69.7275 76.1385 70.5861C71.8082 74.5011 73.0814 75.1885 64.4237 76.6293C55.6658 78.0897 60.8115 80.6889 64.1691 81.3682C68.2433 82.1933 77.6635 83.361 84.0309 76.1502L83.7777 76.973C85.4772 78.0724 85.3613 84.8735 85.6016 89.7328C85.842 94.5921 86.2454 99.1262 87.47 101.802C88.6945 104.475 90.1394 111.362 101.517 109.39C111.024 107.74 118.293 105.367 118.955 83.2996Z" fill="black"/>
<path d="M97.8114 114.192C92.7787 114.192 89.5028 112.619 87.5114 111.098C84.5073 108.805 83.3156 105.851 82.6046 104.086L82.297 103.349C80.8636 100.219 80.3787 95.7123 80.0911 89.9098C80.0482 89.0396 80.0167 88.1404 79.9838 87.188C79.9595 86.4925 79.9295 85.6199 79.8866 84.7045C78.0984 85.3977 76.1843 85.8873 74.1686 86.1673C70.6208 86.658 66.807 86.4983 62.83 85.694C60.0247 85.1269 57.1092 83.9512 55.4484 82.1343C50.6059 85.5655 45.9867 85.0992 43.4703 84.421C39.0313 83.2233 35.0586 79.8592 31.3235 74.1331C28.6641 70.0561 26.0905 64.742 23.6743 58.3413C19.4684 47.1935 16.7962 35.4521 16.5587 31.5985C15.8119 19.5319 19.8261 10.9034 28.4895 5.95388C42.1585 -1.85638 62.8658 2.73558 70.4148 4.82094C75.4862 2.3479 81.453 1.14321 88.1967 1.23116C91.8188 1.27861 95.2665 1.53667 98.4695 1.99726C101.81 1.14784 108.41 -0.071902 115.965 0.00331904C129.885 0.13756 141.419 4.52584 149.32 12.6937C154.958 18.5216 152.171 30.7583 150.007 37.5352C146.964 47.0651 141.629 57.2037 135.077 66.0289C136.857 66.0393 139.433 65.8657 143.099 65.2547C150.329 64.0465 152.442 67.1827 153.015 68.5864C155.314 74.2187 145.322 78.4739 142.204 79.6439C138.21 81.1449 131.7 82.0579 126.367 81.86L126.134 81.8473L124.733 81.7478L124.594 82.6921L124.461 83.6167C124.104 94.8004 122.128 101.883 118.064 106.564C113.805 111.469 107.884 112.845 102.67 113.749C100.894 114.058 99.2778 114.192 97.8114 114.192ZM87.2225 73.4874C90.4712 75.5901 90.7559 79.5467 91.0091 86.9415C91.0406 87.8638 91.0707 88.7375 91.1107 89.5534C91.2337 92.023 91.5213 97.8069 92.64 100.251C92.7988 100.596 92.9404 100.948 93.0892 101.318C94.3366 104.41 94.9632 105.96 100.358 105.025C104.888 104.24 107.216 103.535 109.038 101.436C111.688 98.3832 113.17 92.2463 113.442 83.1897L118.952 83.2985L113.479 82.7673L113.639 81.6621C114.164 78.0191 114.542 75.3852 117.553 73.6447C119.968 72.2479 122.722 72.3833 124.915 72.7027C122.506 71.2319 121.839 69.5029 121.662 68.7947L121.202 66.9639L122.493 65.4132C129.932 56.4839 136.067 45.5097 139.326 35.304C142.674 24.817 141.652 19.2472 140.632 18.1941C127.119 4.22496 103.682 9.99152 101.236 10.6477L100.821 10.8282L98.747 11.1418L97.6841 10.9636C94.7558 10.4718 91.5027 10.1998 88.0136 10.1535C82.5331 10.0795 78.1127 11.1268 74.4876 13.3522L71.9727 14.8948L69.053 13.9215C62.8186 11.8593 44.5017 7.7129 34.8369 13.2503C29.4723 16.324 27.0289 22.3474 27.5725 31.1529C27.7514 34.0599 30.1947 45.0642 34.2203 55.7387C39.7866 70.4889 44.8451 75.3876 46.9566 75.9581C47.3242 76.0588 48.2813 75.457 49.2326 74.5335C55.4212 68.5123 61.3065 63.4934 61.554 63.2816L64.7456 60.5655L68.6038 62.6393C70.1588 63.476 71.874 63.9493 73.6365 64.0384L82.8392 57.6898L81.506 68.6952C81.4759 68.9428 81.4616 69.2784 81.5818 69.9034L81.9823 71.9899L80.2471 73.5614L80.0468 73.7431L85.1024 75.6317L87.2225 73.4874Z" fill="black"/>
<path d="M144.216 69.6245C128.171 72.3012 127.068 67.9071 127.068 67.9071C144.008 47.5731 151.09 21.7607 144.978 15.4433C128.305 -1.79041 99.4452 6.36008 98.9631 6.57186L98.8071 6.59385C95.637 6.06267 92.0907 5.74558 88.1037 5.69351C80.8436 5.59746 75.336 7.23265 71.1573 9.79595C71.1573 9.79595 19.6716 -7.3614 22.0663 31.3751C22.5756 39.6159 36.668 93.7299 53.4756 77.385C59.6185 71.4089 65.5538 66.3552 65.5538 66.3552C68.5022 67.9395 72.0314 68.7473 75.7322 68.4568L76.0198 68.2601C75.9311 69.0019 75.9712 69.7275 76.1342 70.5861C71.8054 74.5011 73.0757 75.1885 64.4208 76.6293C55.6615 78.0897 60.8072 80.6889 64.1676 81.3682C68.2404 82.1933 77.6621 83.361 84.0281 76.1502L83.7734 76.973C85.4701 78.0724 86.6617 84.1236 86.4614 89.609C86.2611 95.0943 86.1281 98.86 87.4657 101.802C88.8033 104.742 90.1351 111.362 101.514 109.39C111.021 107.741 115.948 103.469 116.635 96.3453C117.121 91.28 118.221 92.0288 118.291 87.4993L119.175 85.3549C120.193 78.4878 119.337 76.2728 125.195 77.304L126.619 77.4046C130.93 77.5643 136.572 76.8434 139.884 75.5982C147.017 72.9203 151.247 68.4499 144.216 69.6245Z" fill="#336791"/>
<path d="M98.3865 111.443C88.9005 111.444 85.8964 105.367 84.6661 102.883C82.8679 99.2419 82.4788 85.1096 82.8793 73.5198C82.9079 72.6981 83.7477 72.0489 84.7691 72.0744C85.7833 72.0975 86.583 72.7814 86.5558 73.6031C86.0938 86.9704 86.7504 99.0834 88.0808 101.777C90.1594 105.981 93.3109 109.657 102.225 108.113C110.686 106.645 113.855 104.049 115.266 97.432C116.35 92.3528 118.49 77.9046 118.753 75.0531C118.829 74.2338 119.708 73.6181 120.723 73.6806C121.736 73.742 122.496 74.456 122.42 75.2741C122.145 78.2413 120.014 92.6629 118.888 97.9377C117.221 105.755 112.914 109.301 102.994 111.022C101.311 111.312 99.7785 111.443 98.3865 111.443ZM46.9566 81.7652C46.0511 81.7663 45.2299 81.6321 44.5189 81.44C38.3575 79.777 32.4894 71.6601 27.0762 57.3125C22.9562 46.3904 20.3454 34.9915 20.1165 31.2872C19.437 20.3049 22.9347 12.534 30.5095 8.192C45.496 -0.398243 70.7081 7.78234 71.7739 8.13414C72.7138 8.44544 73.1644 9.31337 72.7796 10.0737C72.3962 10.8328 71.3218 11.1985 70.3834 10.8872V10.8884C70.1402 10.8074 45.9638 2.97282 32.6281 10.6234C26.1506 14.3393 23.1765 21.2411 23.7873 31.1402C23.9804 34.2602 26.4195 45.3871 30.5925 56.4457C35.4249 69.253 40.9254 77.3364 45.682 78.6186C46.4273 78.8211 48.699 79.4333 51.9492 76.274C58.0606 70.3258 63.6755 65.5787 63.7313 65.5313C64.4337 64.9376 65.5982 64.9191 66.3306 65.4862C67.0631 66.0544 67.0888 66.9964 66.3864 67.5889C66.3306 67.6352 60.8015 72.3116 54.776 78.1754C51.9221 80.9505 49.1854 81.7652 46.9566 81.7652ZM126.953 69.2333C126.6 69.2333 126.242 69.1512 125.928 68.9787C125.085 68.5205 124.862 67.5958 125.43 66.9142C142.555 46.3569 148.566 21.5189 143.418 16.1978C136.937 9.49969 127.786 6.00018 116.22 5.79997C107.655 5.64953 100.847 7.41896 99.7356 7.72795L99.4566 7.81937C98.3379 8.10405 97.4796 7.60759 97.1563 7.02781C96.7729 6.34156 97.0876 5.53033 97.883 5.14034L98.378 4.97601L98.3536 4.9818L98.3794 4.97485C100.269 4.4159 107.18 2.7379 115.742 2.81775C128.541 2.92653 139.113 6.92019 146.314 14.3636C149.722 17.8863 149.729 26.002 146.336 36.629C142.877 47.4632 136.368 59.1086 128.48 68.5772C128.125 69.0042 127.544 69.2333 126.953 69.2333ZM127.827 78.7494C124.903 78.7494 122.283 78.4172 120.713 77.6558C119.1 76.8746 118.792 75.8111 118.752 75.2475C118.311 68.9938 122.577 67.9048 124.753 67.4083C124.45 67.038 124.018 66.6017 123.573 66.1516C122.304 64.8693 120.567 63.1126 119.228 60.4857C119.019 60.076 118.361 59.1213 117.6 58.0173C113.476 52.0355 104.896 39.587 110.408 33.2117C112.96 30.2619 118.038 29.1011 125.523 29.7492C123.321 24.3229 112.835 7.34721 87.9578 7.0174C80.4745 6.91556 74.3375 8.77757 69.7268 12.5433C59.4024 20.9784 59.7772 36.2402 59.7815 36.3918C59.8087 37.2134 59.0062 37.8962 57.9919 37.9171C56.9762 37.9425 56.1322 37.291 56.1064 36.4693C56.0836 35.7923 55.6973 19.7772 67.1146 10.4498C72.4577 6.08465 79.4903 3.92986 88.0179 4.04211C103.937 4.25389 114.181 10.7993 119.974 16.2545C126.285 22.1982 129.381 28.7551 129.636 30.9423C129.826 32.5694 128.382 32.8958 128.091 32.9432L127.428 32.9559C120.082 32.0047 115.37 32.6643 113.422 34.9175C109.229 39.764 117.346 51.539 120.812 56.5684C121.697 57.8506 122.335 58.7776 122.627 59.3504C123.766 61.5839 125.251 63.0849 126.444 64.2907C127.493 65.3519 128.402 66.2708 128.729 67.3516C128.879 67.5657 131.022 70.1279 143.732 68.0055C146.918 67.4743 148.828 67.9291 149.412 69.3571C150.56 72.1681 144.116 75.4454 140.548 76.7867C137.346 77.9891 132.244 78.7494 127.827 78.7494ZM122.418 75.0022C122.82 75.332 124.838 75.8991 129.016 75.7544C132.73 75.6248 136.648 74.9709 139 74.0891C142.007 72.9597 144.013 71.6971 145.053 70.835L144.475 70.9206C136.348 72.278 130.6 72.0975 127.391 70.3825C127.161 70.261 126.956 70.1337 126.769 70.0087C126.421 70.1198 126.099 70.1927 125.87 70.2448C124.049 70.6579 122.167 71.0849 122.418 75.0022ZM69.9213 83.3101C67.9028 83.3101 65.7784 83.089 63.6083 82.6481C61.3609 82.1933 57.5699 80.8243 57.6286 78.5758C57.6929 76.0518 62.2292 75.295 63.9387 75.0103C70.1073 73.9827 70.5093 73.5707 72.4377 71.5906C72.9999 71.0132 73.6994 70.2945 74.6522 69.4324C76.0684 68.1513 77.6163 67.5009 79.2529 67.5009C80.3916 67.5009 81.3272 67.8145 81.9437 68.0205C83.9122 68.6802 85.5545 70.2748 86.2297 72.1843C86.8391 73.9063 86.5487 75.5635 85.4114 76.8503C81.6805 81.0777 76.3245 83.3101 69.9213 83.3101ZM61.5998 78.7042C62.1548 79.0502 63.2649 79.5131 64.4995 79.7643C66.3793 80.1438 68.2018 80.3371 69.9213 80.3371C75.16 80.3371 79.3644 78.5816 82.4201 75.1226C83.0567 74.4004 82.8664 73.485 82.6962 73.0025C82.3386 71.9934 81.4516 71.0757 80.5375 70.7678C80.0411 70.6012 79.6305 70.4739 79.2529 70.4739C79.0497 70.4739 78.4331 70.4739 77.3931 71.4147C76.5148 72.2086 75.8839 72.8567 75.3245 73.4295C72.9241 75.8956 71.824 76.7323 64.6798 77.9231C62.9373 78.2147 62.0433 78.5087 61.5998 78.7042ZM75.7365 71.8441C74.8439 71.8441 74.0614 71.3175 73.9212 70.5827C73.874 70.3362 73.8439 70.0874 73.8296 69.8374C69.146 69.7657 64.6283 68.1409 61.1992 65.2454C56.8632 61.5851 54.889 56.514 55.7846 51.333C56.7573 45.7065 56.394 40.7396 56.198 38.071C56.1436 37.3292 56.105 36.7934 56.1079 36.4219C56.1107 35.952 56.1222 34.7034 61.2793 32.5891C63.1133 31.8369 66.7913 30.5246 70.8083 30.1878C77.4661 29.6323 81.8536 32.0301 83.1669 36.9415C86.7118 50.2035 83.4472 56.0696 81.0639 60.3526C80.619 61.1488 80.1999 61.9033 79.8651 62.6324L79.569 63.277C78.3101 66.0081 77.2215 68.3677 77.5562 70.1313C77.7093 70.9437 77.0212 71.7017 76.0184 71.8279L75.7365 71.8441ZM59.7958 36.8327L59.8688 37.8951C60.0719 40.6667 60.4496 45.8257 59.4253 51.7462C58.6872 56.0187 60.3008 60.1906 63.8529 63.189C66.6597 65.5591 70.3562 66.8667 74.1543 66.8667H74.233C74.6593 65.4167 75.3646 63.8868 76.1242 62.2378L76.4189 61.5978C76.798 60.7738 77.2415 59.9765 77.7107 59.1329C80.0053 55.0084 82.8607 49.8749 79.5719 37.5699C78.9195 35.1339 77.3402 33.7232 74.7437 33.258C69.4106 32.3044 61.4639 35.5493 59.7958 36.8327ZM70.8912 36.202C70.7997 36.7274 72.0829 38.1311 73.7538 38.3186C75.4232 38.5073 76.8524 37.4102 76.9425 36.8848C77.0326 36.3582 75.7508 35.7796 74.0785 35.591C72.4091 35.4024 70.9799 35.6755 70.8912 36.202ZM74.1386 38.8371L73.6694 38.8104C72.6322 38.6936 71.5836 38.1647 70.8669 37.3951C70.6152 37.1255 70.2031 36.6001 70.2847 36.1326C70.402 35.4463 71.4349 35.0367 73.05 35.0367C73.4119 35.0367 73.7867 35.0587 74.1658 35.1003C75.047 35.1998 75.8667 35.4058 76.4718 35.6789C77.5204 36.1534 77.5977 36.6811 77.5505 36.9554C77.4203 37.7111 75.9297 38.8371 74.1386 38.8371ZM71.5007 36.29C71.5536 36.614 72.545 37.6844 73.8382 37.8291L74.1372 37.8465C75.3303 37.8465 76.2229 37.0861 76.3274 36.8373C76.2172 36.6684 75.4504 36.246 73.9941 36.084C73.6722 36.0469 73.3532 36.0284 73.0485 36.0284C72.1158 36.0273 71.6165 36.1974 71.5007 36.29ZM121.743 35.1292C121.833 35.6558 120.553 37.0595 118.881 37.247C117.21 37.4345 115.781 36.3386 115.689 35.812C115.6 35.2866 116.882 34.7069 118.553 34.5194C120.224 34.3296 121.652 34.605 121.743 35.1292ZM118.496 37.5155C116.886 37.5155 115.5 36.5029 115.386 35.8467C115.254 35.0587 116.858 34.4592 118.512 34.274C118.875 34.2324 119.235 34.2115 119.583 34.2115C121.009 34.2115 121.954 34.5506 122.048 35.0957C122.109 35.4498 121.775 35.9949 121.197 36.4855C120.816 36.8096 120.015 37.3708 118.925 37.4923L118.496 37.5155ZM119.582 34.7068C119.263 34.7068 118.931 34.7265 118.595 34.7636C116.932 34.9499 115.944 35.4903 115.991 35.7796C116.047 36.0967 117.107 37.0202 118.494 37.0202L118.836 37.0005C119.743 36.8975 120.424 36.4196 120.749 36.143C121.258 35.709 121.461 35.3017 121.437 35.1616C121.407 34.98 120.795 34.7068 119.582 34.7068ZM124.151 65.3195C123.799 65.3195 123.444 65.2385 123.129 65.0684C122.285 64.6101 122.059 63.6878 122.624 63.005C126.538 58.2753 125.822 53.4508 125.129 48.7871C124.833 46.7989 124.529 44.7448 124.609 42.7717C124.689 40.7431 125.006 39.0697 125.315 37.4495C125.68 35.532 126.025 33.7186 125.882 31.5684C125.826 30.7491 126.604 30.0489 127.619 30.0026C128.636 29.9587 129.498 30.5882 129.554 31.4087C129.717 33.8667 129.327 35.9173 128.949 37.902C128.657 39.433 128.355 41.0162 128.282 42.8666C128.212 44.6129 128.488 46.468 128.78 48.4306C129.518 53.3918 130.352 59.0148 125.68 64.6587C125.325 65.0869 124.743 65.3195 124.151 65.3195Z" fill="white"/>
<path d="M0 114.671C1.5636 114.461 3.60786 114.28 6.21291 114.28C9.4102 114.28 11.7549 114.882 13.2427 115.965C14.6189 116.928 15.4371 118.402 15.4371 120.209C15.4371 122.044 14.7662 123.489 13.5016 124.542C11.7906 126.016 9.00106 126.768 5.83953 126.768C4.87248 126.768 3.97981 126.738 3.23735 126.588V134.713H0V114.671ZM3.23735 124.45C3.94405 124.601 4.83671 124.661 5.91535 124.661C9.81934 124.661 12.2012 123.126 12.2012 120.328C12.2012 117.65 9.85797 116.356 6.2873 116.356C4.87391 116.356 3.79527 116.447 3.23735 116.567V124.45ZM35.0386 127.309C35.0386 132.694 30.4251 135.042 26.0733 135.042C21.2009 135.042 17.4442 132.154 17.4442 127.549C17.4442 122.675 21.3868 119.817 26.3709 119.817C31.5423 119.815 35.0386 122.856 35.0386 127.309ZM20.7559 127.459C20.7559 130.648 23.0248 133.055 26.2235 133.055C29.3479 133.055 31.6897 130.679 31.6897 127.399C31.6897 124.932 30.1662 121.802 26.2965 121.802C22.4268 121.802 20.7559 124.691 20.7559 127.459ZM38.7194 132.002C39.6865 132.514 41.3975 133.055 43.034 133.055C45.4145 133.055 46.5303 132.093 46.5303 130.889C46.5303 129.625 45.6019 128.933 43.1828 128.211C39.9469 127.279 38.4219 125.834 38.4219 124.089C38.4219 121.742 40.7651 119.817 44.6334 119.817C46.4559 119.817 48.0567 120.238 49.0609 120.719L48.2427 122.645C47.536 122.284 46.2342 121.802 44.5604 121.802C42.6263 121.802 41.5477 122.705 41.5477 123.788C41.5477 124.992 42.6277 125.533 44.971 126.256C48.0953 127.218 49.6947 128.482 49.6947 130.648C49.6947 133.206 47.2398 135.011 42.9625 135.011C40.9912 135.011 39.1686 134.62 37.904 134.018L38.7194 132.002ZM57.8388 115.964V120.146H62.5239V122.162H57.8388V130.015C57.8388 131.821 58.4697 132.844 60.2937 132.844C61.1491 132.844 61.7815 132.753 62.1906 132.663L62.3394 134.649C61.7085 134.86 60.7028 135.01 59.4396 135.01C57.9147 135.01 56.6858 134.619 55.9047 133.897C54.9763 133.115 54.6401 131.821 54.6401 130.106V122.162H51.8505V120.146H54.6401V116.656L57.8388 115.964ZM81.4945 120.148C81.4187 121.201 81.3458 122.374 81.3458 124.149V132.604C81.3458 135.944 80.5275 137.99 78.7793 139.255C77.0312 140.579 74.502 141 72.2331 141C70.0758 141 67.6954 140.579 66.2434 139.796L67.0616 137.781C68.2519 138.382 70.1116 138.924 72.3433 138.924C75.6908 138.924 78.1456 137.51 78.1456 133.839V132.214H78.0712C77.067 133.568 75.1328 134.651 72.3433 134.651C67.8799 134.651 64.6812 131.582 64.6812 127.549C64.6812 122.615 68.661 119.817 72.7896 119.817C75.9154 119.817 77.6263 121.14 78.4074 122.344H78.4818L78.6306 120.148H81.4945ZM78.1098 125.894C78.1098 125.443 78.0726 125.052 77.9239 124.691C77.3287 123.156 75.7294 121.893 73.3489 121.893C70.2232 121.893 67.9929 124.029 67.9929 127.399C67.9929 130.257 69.7783 132.634 73.3117 132.634C75.3202 132.634 77.1428 131.611 77.8495 129.926C78.0354 129.475 78.1113 128.963 78.1113 128.512L78.1098 125.894ZM86.5515 124.691C86.5515 122.976 86.5144 121.502 86.4028 120.148H89.2682L89.3783 123.006H89.5271C90.3454 121.05 92.3167 119.817 94.5112 119.817C94.8831 119.817 95.142 119.847 95.4396 119.907V122.404C95.1063 122.344 94.7701 122.314 94.3252 122.314C92.0191 122.314 90.3812 123.728 89.9362 125.714C89.8619 126.075 89.7875 126.496 89.7875 126.948V134.71H86.5515V124.691ZM100.166 127.91C100.241 131.491 103.066 132.965 106.339 132.965C108.684 132.965 110.096 132.634 111.323 132.213L111.881 134.109C110.728 134.53 108.757 135.011 105.893 135.011C100.351 135.011 97.0404 132.063 97.0404 127.67C97.0404 123.277 100.239 119.815 105.484 119.815C111.36 119.815 112.922 123.998 112.922 126.676C112.922 127.217 112.848 127.638 112.811 127.909L100.166 127.91ZM109.762 126.015C109.798 124.33 108.905 121.712 105.225 121.712C101.914 121.712 100.464 124.179 100.202 126.015H109.762Z" fill="black"/>
<path d="M116.642 131.521C118.092 132.243 120.213 132.845 122.444 132.845C125.755 132.845 127.689 131.431 127.689 129.385C127.689 127.489 126.35 126.406 122.965 125.353C118.874 124.179 116.344 122.464 116.344 119.606C116.344 116.447 119.58 114.1 124.453 114.1C127.019 114.1 128.879 114.581 129.995 115.093L129.102 117.229C128.284 116.868 126.61 116.266 124.341 116.266C120.919 116.266 119.617 117.921 119.617 119.305C119.617 121.201 121.141 122.133 124.602 123.217C128.842 124.542 130.999 126.195 130.999 129.174C130.999 132.303 128.135 135.011 122.221 135.011C119.803 135.011 117.163 134.44 115.822 133.717L116.642 131.521ZM156.105 137.689C152.721 136.967 149.41 136.155 146.509 135.342C145.988 135.192 145.468 135.041 144.984 135.041C139.033 134.861 133.937 131.31 133.937 124.781C133.937 118.282 138.847 114.1 145.616 114.1C152.423 114.1 156.851 118.372 156.851 124.36C156.851 129.565 153.875 132.905 149.709 134.079V134.199C152.201 134.71 154.916 135.192 157.037 135.493L156.105 137.689ZM153.427 124.48C153.427 120.418 150.825 116.235 145.505 116.235C140.037 116.235 137.359 120.327 137.396 124.721C137.359 129.024 140.298 132.905 145.356 132.905C150.527 132.905 153.427 129.114 153.427 124.48ZM161.051 114.431H164.288V132.514H175V134.71H161.051V114.431Z" fill="#336791"/>
</svg>
