<svg width="110" height="103" viewBox="0 0 110 103" fill="none" xmlns="http://www.w3.org/2000/svg">
<path d="M90.0955 33.3842C88.9587 32.9709 87.7808 32.5798 86.568 32.2099C86.7674 31.3504 86.9503 30.502 87.113 29.6681C89.7832 15.9745 88.0373 4.94283 82.0757 1.31074C76.3592 -2.17195 67.0104 1.45932 57.5685 10.1404C56.6605 10.9752 55.75 11.859 54.8399 12.7852C54.2335 12.1724 53.6281 11.5802 53.0242 11.0137C43.1289 1.73132 33.2103 -2.1804 27.2545 1.4622C21.5435 4.95499 19.8522 15.3258 22.2558 28.3033C22.4879 29.5568 22.7592 30.8369 23.066 32.1384C21.6622 32.5594 20.307 33.0082 19.0104 33.4856C7.4091 37.7588 0 44.4558 0 51.4025C0 58.577 7.95367 65.7732 20.0373 70.1366C20.9909 70.4809 21.9804 70.8065 23.0001 71.1156C22.6691 72.5232 22.3812 73.9026 22.1395 75.248C19.8477 88.0003 21.6375 98.1261 27.3333 101.597C33.2165 105.181 43.0902 101.497 52.7047 92.618C53.4646 91.9161 54.2273 91.1718 54.9913 90.3917C55.9815 91.3991 56.9702 92.3526 57.9537 93.2469C67.2664 101.713 76.4643 105.132 82.1549 101.652C88.0322 98.0573 89.9424 87.1798 87.4625 73.9455C87.2731 72.9347 87.0527 71.9022 86.8052 70.8512C87.4986 70.6347 88.1793 70.4111 88.8431 70.1786C101.405 65.7814 109.578 58.6728 109.578 51.4025C109.578 44.4307 101.93 37.6885 90.0955 33.3842ZM87.3708 65.4843C86.7717 65.6939 86.1569 65.8964 85.5304 66.0928C84.1436 61.4545 82.2719 56.5224 79.9814 51.4266C82.1672 46.4522 83.9665 41.5831 85.3145 36.9749C86.4354 37.3176 87.5234 37.679 88.5717 38.0604C98.7119 41.7484 104.897 47.201 104.897 51.4025C104.897 55.8778 98.2173 61.6874 87.3708 65.4843ZM82.8703 74.906C83.9669 80.758 84.1235 86.0489 83.3971 90.185C82.7445 93.9016 81.432 96.3795 79.8092 97.3719C76.3559 99.4836 68.971 96.7387 61.0066 89.498C60.0936 88.668 59.1739 87.7817 58.2513 86.8437C61.3389 83.2761 64.4248 79.1286 67.4365 74.5225C72.7338 74.0259 77.7386 73.214 82.2772 72.1055C82.5007 73.0582 82.6992 73.9925 82.8703 74.906ZM37.3578 97.007C33.9838 98.2658 31.2966 98.3019 29.6723 97.3123C26.2158 95.2062 24.7789 87.0761 26.739 76.1704C26.9635 74.9214 27.2307 73.6385 27.5387 72.3271C32.0275 73.3757 36.9956 74.1303 42.3056 74.5851C45.3376 79.0924 48.5126 83.2353 51.7121 86.8628C51.0131 87.5758 50.3168 88.2546 49.6243 88.8942C45.3729 92.8204 41.1124 95.6059 37.3578 97.007ZM21.5513 65.4569C16.2081 63.5275 11.7955 61.0199 8.77093 58.2836C6.05312 55.8246 4.68096 53.3834 4.68096 51.4025C4.68096 47.187 10.6297 41.8102 20.5512 38.1556C21.7551 37.7122 23.0153 37.2943 24.3231 36.9017C25.6943 41.614 27.493 46.5408 29.6637 51.5228C27.4649 56.5788 25.6406 61.5841 24.256 66.3516C23.3237 66.0685 22.4204 65.7705 21.5513 65.4569ZM26.8497 27.3536C24.7904 16.2347 26.1581 7.8471 29.5997 5.74236C33.2657 3.50018 41.3721 6.69706 49.9159 14.7119C50.4621 15.2242 51.0104 15.7604 51.5602 16.3151C48.3764 19.9268 45.2305 24.0386 42.2254 28.5193C37.0718 29.0239 32.1387 29.8346 27.603 30.9201C27.3179 29.7082 27.0653 28.5176 26.8497 27.3536ZM74.1169 39.6842C73.0327 37.7056 71.9195 35.7737 70.7847 33.8946C74.281 34.3616 77.6307 34.9814 80.7765 35.7399C79.832 38.9377 78.6549 42.281 77.2693 45.7085C76.2753 43.7148 75.224 41.7047 74.1169 39.6842ZM54.8415 19.8495C57.0007 22.3208 59.163 25.08 61.2898 28.0737C59.1466 27.9668 56.9769 27.9112 54.7892 27.9112C52.6222 27.9112 50.4685 27.9656 48.3386 28.0707C50.4675 25.1048 52.6486 22.3493 54.8415 19.8495ZM35.4426 39.7184C34.3595 41.7026 33.3277 43.7019 32.3493 45.7048C30.9861 42.2893 29.8199 38.9306 28.8673 35.6876C31.9937 34.9485 35.3277 34.3441 38.8017 33.886C37.6509 35.7824 36.5286 37.7289 35.4426 39.7184ZM38.9018 69.2717C35.3125 68.8487 31.9284 68.2754 28.8028 67.5567C29.7706 64.2557 30.9625 60.8254 32.3546 57.3363C33.3355 59.3378 34.3714 61.3379 35.4611 63.3264C36.5711 65.3522 37.7213 67.3366 38.9018 69.2717ZM54.971 83.3041C52.7523 80.7751 50.5393 77.9775 48.378 74.9684C50.4761 75.0554 52.6152 75.0999 54.7892 75.0999C57.0227 75.0999 59.2307 75.0467 61.4039 74.9445C59.2701 78.0078 57.1156 80.8097 54.971 83.3041ZM77.314 57.1585C78.7786 60.6853 80.0132 64.0977 80.9935 67.3424C77.8164 68.1081 74.3861 68.7249 70.7719 69.1831C71.9094 67.2787 73.0323 65.3137 74.1357 63.2924C75.2519 61.2474 76.3118 59.1993 77.314 57.1585ZM70.0808 60.8217C68.3679 63.9594 66.6093 66.9548 64.8241 69.7822C61.5724 70.0278 58.2131 70.1543 54.7892 70.1543C51.3792 70.1543 48.0622 70.0424 44.8681 69.8234C43.0108 66.9589 41.2141 63.9547 39.5121 60.8487C37.8146 57.7511 36.2526 54.6274 34.837 51.5212C36.2522 48.4077 37.8105 45.2805 39.4982 42.1885L39.4978 42.1891C41.1901 39.0889 42.9711 36.0993 44.8111 33.2528C48.07 32.9925 51.4118 32.8567 54.789 32.8567C58.1815 32.8567 61.5277 32.9935 64.7856 33.2561C66.5976 36.0818 68.3665 39.0617 70.0654 42.1624C71.7836 45.2978 73.3619 48.4042 74.7893 51.4509C73.3662 54.5499 71.7914 57.6876 70.0808 60.8217ZM79.7374 5.59523C83.4069 7.83082 84.8338 16.847 82.5284 28.6699C82.3813 29.4243 82.2157 30.1927 82.0359 30.9714C77.4897 29.8632 72.553 29.0385 67.3845 28.5263C64.3735 23.9964 61.2533 19.8782 58.1214 16.3128C58.9634 15.4571 59.8043 14.641 60.6416 13.871C68.7315 6.43309 76.2925 3.49647 79.7374 5.59523ZM54.7892 41.0649C60.1932 41.0649 64.5742 45.6931 64.5742 51.4025C64.5742 57.1117 60.1932 61.7401 54.7892 61.7401C49.3852 61.7401 45.0042 57.1117 45.0042 51.4025C45.0042 45.6931 49.3852 41.0649 54.7892 41.0649Z" fill="#00D8FF"/>
</svg>
