<svg width="110" height="109" viewBox="0 0 110 109" fill="none" xmlns="http://www.w3.org/2000/svg">
<path d="M105.704 11.5404L83.1411 0.677486C81.8668 0.0631101 80.4331 -0.139634 79.0384 0.0973577C77.6438 0.334349 76.3575 0.999337 75.3578 2.00014L1.49667 69.338C0.60052 70.1511 0.064087 71.287 0.00537838 72.4956C-0.0533302 73.7043 0.370493 74.8868 1.18362 75.783C1.28145 75.8886 1.37928 75.9904 1.48493 76.0843L7.51513 81.5627C8.3031 82.2799 9.31736 82.6984 10.3818 82.7456C11.4462 82.7927 12.4935 82.4656 13.3418 81.821L102.308 14.3579C102.98 13.848 103.781 13.5358 104.621 13.4564C105.46 13.377 106.306 13.5336 107.061 13.9086C107.817 14.2836 108.453 14.862 108.898 15.5788C109.342 16.2956 109.578 17.1223 109.578 17.9659V17.7037C109.578 16.4159 109.215 15.1542 108.529 14.0639C107.844 12.9736 106.865 12.0989 105.704 11.5404Z" fill="#0065A9"/>
<path d="M105.704 97.3954L83.1411 108.262C81.8665 108.875 80.4331 109.077 79.0389 108.84C77.6447 108.603 76.3584 107.939 75.3578 106.94L1.49667 39.5979C0.60052 38.7847 0.064087 37.6489 0.00537838 36.4402C-0.0533302 35.2315 0.370493 34.0491 1.18362 33.1529C1.28145 33.0472 1.37928 32.9455 1.48493 32.8516L7.51513 27.3731C8.30389 26.653 9.32049 26.2326 10.3875 26.1854C11.4546 26.1382 12.5043 26.4671 13.3536 27.1149L102.308 94.5779C102.98 95.0878 103.781 95.4001 104.621 95.4794C105.46 95.5588 106.306 95.4022 107.061 95.0273C107.817 94.6523 108.453 94.0738 108.898 93.357C109.342 92.6402 109.578 91.8135 109.578 90.97V91.2517C109.574 92.5361 109.209 93.7934 108.524 94.8798C107.839 95.9663 106.862 96.838 105.704 97.3954Z" fill="#007ACC"/>
<path d="M83.1411 108.262C81.8665 108.875 80.4331 109.077 79.0389 108.84C77.6447 108.603 76.3584 107.939 75.3578 106.94C75.9197 107.494 76.6329 107.871 77.4078 108.022C78.1828 108.173 78.9851 108.092 79.7142 107.789C80.4433 107.486 81.0668 106.975 81.5066 106.319C81.9463 105.663 82.1828 104.892 82.1862 104.103V4.83327C82.1869 4.04003 81.9521 3.26444 81.5116 2.60475C81.0711 1.94505 80.4447 1.43095 79.7118 1.12755C78.9788 0.824153 78.1724 0.745118 77.3945 0.900455C76.6166 1.05579 75.9023 1.43851 75.3421 2.00014C76.342 0.9997 77.6281 0.334671 79.0224 0.0970205C80.4168 -0.14063 81.8505 0.0608422 83.1254 0.673573L105.685 11.5209C106.849 12.0765 107.832 12.95 108.521 14.0406C109.21 15.1311 109.577 16.3942 109.578 17.6841V91.2517C109.579 92.5406 109.215 93.8034 108.529 94.8945C107.843 95.9856 106.862 96.8607 105.7 97.4189L83.1411 108.262Z" fill="#1F9CF0"/>
</svg>
