<svg width="97" height="79" viewBox="0 0 97 79" fill="none" xmlns="http://www.w3.org/2000/svg">
<path d="M94.564 12.2829C93.4533 7.44805 90.1805 3.64031 86.0251 2.3481C78.4932 0 48.2911 0 48.2911 0C48.2911 0 18.0892 0 10.5571 2.3481C6.40169 3.64052 3.12896 7.44805 2.01818 12.2829C0 21.0462 0 39.3302 0 39.3302C0 39.3302 0 57.6141 2.01818 66.3775C3.12896 71.2123 6.40169 74.8614 10.5571 76.1536C18.0892 78.5017 48.2911 78.5017 48.2911 78.5017C48.2911 78.5017 78.493 78.5017 86.0251 76.1536C90.1805 74.8614 93.4533 71.2123 94.564 66.3775C96.5822 57.6141 96.5822 39.3302 96.5822 39.3302C96.5822 39.3302 96.5822 21.0462 94.564 12.2829ZM38.4133 55.9306V22.7297L63.6563 39.3306L38.4133 55.9306Z" fill="url(#paint0_linear_245_15)"/>
<defs>
<linearGradient id="paint0_linear_245_15" x1="97" y1="39" x2="37" y2="22" gradientUnits="userSpaceOnUse">
<stop offset="0.0364583" stop-color="#F4BEA2"/>
<stop offset="0.885417" stop-color="#CDA999"/>
<stop offset="0.979167" stop-color="#C7A697"/>
</linearGradient>
</defs>
</svg>
