<svg width="435" height="146" viewBox="0 0 435 146" fill="none" xmlns="http://www.w3.org/2000/svg">
<path fill-rule="evenodd" clip-rule="evenodd" d="M16.0553 55.776C16.0553 47.328 18.3273 43.104 22.8713 43.104C26.1993 43.104 29.4313 44.992 32.5673 48.768C16.3753 67.712 8.18329 81.696 7.99129 90.72C7.99129 92.192 8.34329 92.928 9.04729 92.928C9.62329 92.928 10.2633 92.512 10.9673 91.68L12.5993 89.472C13.6873 87.936 15.3513 85.216 17.5913 81.312C19.8313 77.408 22.1033 73.088 24.4073 68.352L25.3673 66.24C26.0713 64.896 27.2553 62.816 28.9193 60C30.6473 57.184 32.5353 54.368 34.5833 51.552C36.4393 54.432 37.9113 57.632 38.9993 61.152C40.1513 64.608 40.7273 67.616 40.7273 70.176C40.7273 71.904 40.3753 74.656 39.6713 78.432C38.9673 82.208 38.6153 85.056 38.6153 86.976C38.6153 88.128 38.7113 89.248 38.9033 90.336C39.0953 91.488 39.4153 92.768 39.8633 94.176C40.3753 95.584 41.2073 96.704 42.3593 97.536C43.5113 98.432 44.9513 98.88 46.6793 98.88C47.4473 98.88 47.8313 98.656 47.8313 98.208C47.8313 97.888 47.7033 97.568 47.4473 97.248C46.7433 95.904 46.3913 93.76 46.3913 90.816C46.3913 81.408 49.3353 67.872 55.2233 50.208C59.8953 36.32 65.0473 23.84 70.6793 12.768C70.9353 12.256 71.0633 11.808 71.0633 11.424C71.0633 10.848 70.7433 10.56 70.1033 10.56C67.5433 10.56 64.2793 13.536 60.3113 19.488L56.6633 23.04C54.2313 25.344 50.8073 28.8 46.3913 33.408C42.0393 37.952 37.9433 42.464 34.1033 46.944C29.5593 41.184 24.8233 38.304 19.8953 38.304C17.3993 38.304 15.5433 39.328 14.3273 41.376C13.1753 43.424 12.5993 45.76 12.5993 48.384C12.5993 49.984 12.8233 51.936 13.2713 54.24C13.7833 56.544 14.5193 57.696 15.4793 57.696C15.8633 57.696 16.0553 57.28 16.0553 56.448V55.776ZM36.0233 49.632C42.1673 41.376 48.7593 34.176 55.7993 28.032L56.8553 27.648C57.0473 27.648 57.1433 27.712 57.1433 27.84C57.1433 27.968 57.0473 28.224 56.8553 28.608L54.6473 33.216C53.1753 36.352 51.2873 40.864 48.9833 46.752C46.7433 52.576 44.8233 58.208 43.2233 63.648L42.7433 64.512C42.6153 64.512 42.4553 64.224 42.2633 63.648C40.7913 58.4 38.7113 53.728 36.0233 49.632ZM68.6775 90.528C71.0455 90.528 75.9735 87.008 83.4615 79.968C86.2727 77.2555 89.4068 74.03 92.864 70.2914C92.2275 71.4534 91.6824 72.4389 91.2285 73.248L89.6925 76.224C88.6685 78.272 87.6445 80.64 86.6205 83.328C85.5965 86.016 85.0845 88.032 85.0845 89.376C85.0845 90.528 85.5325 91.104 86.4285 91.104C88.9245 91.104 94.0125 87.392 101.693 79.968C104.388 77.3673 107.38 74.295 110.669 70.751L108.262 75.072L106.534 78.24C105.382 80.352 104.23 82.72 103.078 85.344C101.926 87.968 101.35 89.792 101.35 90.816C101.35 91.456 101.638 91.776 102.214 91.776L103.462 91.2C104.23 90.88 105.798 89.504 108.166 87.072C110.598 84.64 113.446 81.376 116.71 77.28C119.654 73.504 123.27 69.248 127.558 64.512C131.846 59.776 134.758 57.408 136.294 57.408C136.678 57.408 136.87 57.6 136.87 57.984C136.87 58.688 135.558 61.088 132.934 65.184C130.374 69.216 127.782 73.6 125.158 78.336C122.534 83.008 121.222 86.496 121.222 88.8C121.222 90.016 121.702 90.624 122.662 90.624C125.094 90.624 130.15 87.072 137.83 79.968C139.829 78.0391 141.991 75.8508 144.317 73.403C143.127 76.6942 142.532 79.8425 142.532 82.848C142.532 88.416 144.804 91.2 149.348 91.2C152.996 91.2 156.804 89.664 160.772 86.592C164.804 83.52 168.196 79.968 170.948 75.936C173.764 71.84 175.844 67.904 177.188 64.128L178.532 62.304C178.788 62.048 179.588 61.344 180.932 60.192C182.34 59.04 183.396 58.112 184.1 57.408C184.612 56.896 184.868 56.448 184.868 56.064C184.868 55.808 184.58 55.616 184.004 55.488C182.34 55.552 180.324 56.064 177.956 57.024C177.828 57.024 177.764 56.96 177.764 56.832C177.764 56.704 177.796 56.608 177.86 56.544C179.396 53.92 180.164 51.84 180.164 50.304C180.164 47.488 178.372 46.08 174.788 46.08C169.86 46.08 164.836 48.128 159.716 52.224C154.66 56.256 150.532 61.152 147.332 66.912C147.05 67.414 146.78 67.9131 146.523 68.4091C144.188 70.9904 142.186 73.1153 140.518 74.784C140.198 75.04 139.686 75.488 138.982 76.128C138.342 76.704 137.83 77.152 137.446 77.472C137.126 77.792 136.742 78.144 136.294 78.528C135.846 78.912 135.43 79.2 135.046 79.392C134.726 79.52 134.47 79.584 134.278 79.584C133.702 79.584 133.414 79.296 133.414 78.72C133.414 77.696 134.342 75.52 136.198 72.192C138.054 68.864 139.59 66.304 140.806 64.512C142.79 61.312 144.39 58.4 145.606 55.776C146.822 53.152 147.558 51.424 147.814 50.592C148.07 49.696 148.198 49.12 148.198 48.864C148.198 47.968 147.75 47.52 146.854 47.52C142.374 47.52 132.966 55.488 118.63 71.424C118.246 71.808 117.99 72 117.862 72C117.734 72 117.67 71.84 117.67 71.52C117.67 71.328 117.702 71.136 117.766 70.944C118.086 70.24 118.534 69.408 119.11 68.448C119.686 67.424 120.358 66.24 121.126 64.896C121.958 63.552 123.334 61.248 125.254 57.984C127.174 54.656 129.318 50.88 131.686 46.656C135.59 39.68 142.566 27.136 152.614 9.024C154.662 4.864 155.686 2.112 155.686 0.768002C155.686 0.256001 155.494 0 155.11 0C154.342 0 152.998 1.28 151.078 3.84C144.294 12.608 135.014 27.392 123.238 48.192L114.644 63.6172C110.409 68.4539 106.988 72.1762 104.381 74.784C100.093 78.88 97.5005 80.928 96.6045 80.928C96.2845 80.928 96.1245 80.704 96.1245 80.256C96.1245 78.784 97.4685 75.584 100.157 70.656C100.925 69.312 108.701 54.624 123.485 26.592H132.509C134.365 26.592 135.293 26.08 135.293 25.056C135.293 24.736 135.005 24.576 134.429 24.576H124.541L127.805 18.624C130.237 14.208 131.453 11.328 131.453 9.984C131.453 9.408 131.229 9.12 130.781 9.12C130.013 9.12 128.637 10.368 126.653 12.864C124.413 15.744 121.725 19.648 118.589 24.576C115.069 24.64 112.605 24.672 111.197 24.672C110.621 24.672 110.077 24.832 109.565 25.152C109.053 25.472 108.797 25.792 108.797 26.112C108.797 26.432 109.117 26.592 109.757 26.592H117.341C114.525 31.136 111.517 36.224 108.317 41.856C105.181 47.488 101.917 53.472 98.5245 59.808C97.8403 61.0861 97.1951 62.2887 96.589 63.4158C92.2733 68.3507 88.7935 72.1401 86.1495 74.784L85.0935 75.84C84.5175 76.352 84.0375 76.768 83.6535 77.088C83.3335 77.408 82.9175 77.792 82.4055 78.24C81.8935 78.624 81.4135 78.944 80.9655 79.2C80.5815 79.392 80.2295 79.488 79.9095 79.488C79.4615 79.488 79.2375 79.232 79.2375 78.72C79.2375 77.248 81.6695 72.512 86.5335 64.512C90.9495 57.216 93.4135 52.064 93.9255 49.056C93.9255 48.032 93.4775 47.52 92.5815 47.52C91.9415 47.52 91.2695 47.68 90.5655 48C87.5575 49.472 83.7175 52.352 79.0455 56.64C74.3735 60.864 71.0455 64.032 69.0615 66.144C67.1415 68.256 65.5735 70.016 64.3575 71.424C63.8455 71.808 63.5255 72 63.3975 72C63.2695 72 63.2055 71.936 63.2055 71.808C63.2055 71.616 63.3015 71.328 63.4935 70.944C64.3255 69.344 66.2455 65.888 69.2535 60.576C72.3255 55.264 74.5975 51.456 76.0695 49.152C76.2615 48.896 76.3575 48.576 76.3575 48.192C76.3575 47.744 76.1015 47.52 75.5895 47.52C74.1815 47.648 72.8375 48.032 71.5575 48.672C70.3415 49.312 69.1895 50.304 68.1015 51.648C67.0135 52.928 66.1495 54.016 65.5095 54.912C64.9335 55.744 64.1655 56.96 63.2055 58.56L53.7975 75.072L51.9735 78.336C50.7575 80.576 49.5415 82.944 48.3255 85.44C47.1095 87.872 46.5015 89.344 46.5015 89.856C46.5015 90.368 46.9495 90.624 47.8455 90.624C49.0615 90.624 50.2455 90.24 51.3975 89.472C52.6135 88.768 53.5415 88.032 54.1815 87.264C54.8215 86.496 55.5575 85.504 56.3895 84.288L60.3255 79.296C62.9495 75.904 66.3095 72 70.4055 67.584C74.5015 63.104 78.0215 59.808 80.9655 57.696L82.3095 57.216C82.6295 57.216 82.7895 57.376 82.7895 57.696C82.7895 58.144 82.2135 59.392 81.0615 61.44C79.9095 63.424 78.3735 65.984 76.4535 69.12C74.5335 72.192 73.0935 74.592 72.1335 76.32C72.1335 76.384 71.9095 76.8 71.4615 77.568C71.0135 78.336 70.5655 79.168 70.1175 80.064C69.6695 80.96 69.1895 81.952 68.6775 83.04C68.2295 84.064 67.8455 85.12 67.5255 86.208C67.2055 87.232 67.0455 88.096 67.0455 88.8C67.0455 89.952 67.5895 90.528 68.6775 90.528ZM175.652 52.608C175.652 53.824 175.396 55.552 174.884 57.792C174.82 58.048 174.532 58.272 174.02 58.464C170.692 59.936 169.028 61.6 169.028 63.456C169.028 63.712 169.06 63.904 169.124 64.032C168.356 69.472 166.084 74.88 162.308 80.256C158.596 85.632 155.396 88.32 152.708 88.32C150.98 88.32 150.116 87.104 150.116 84.672C150.116 81.344 151.428 76.8 154.052 71.04C156.74 65.28 159.94 60.096 163.652 55.488C167.364 50.88 170.468 48.576 172.964 48.576C174.756 48.576 175.652 49.92 175.652 52.608ZM192.803 90.528C195.171 90.528 200.099 87.008 207.587 79.968C209.992 77.6466 212.635 74.9495 215.514 71.8766C215.271 72.3266 215.026 72.7838 214.778 73.248L213.242 76.224C212.218 78.144 211.194 80.416 210.17 83.04C209.146 85.6 208.634 87.52 208.634 88.8C208.634 89.952 209.082 90.528 209.978 90.528C211.962 90.528 215.354 88.256 220.154 83.712L222.266 81.792C223.674 80.512 225.69 78.56 228.314 75.936C230.938 73.248 233.434 70.528 235.802 67.776C235.994 67.584 236.154 67.488 236.282 67.488C236.41 67.488 236.474 67.584 236.474 67.776L232.442 75.648C228.922 82.496 226.106 87.84 223.994 91.68C213.434 100.384 205.626 108.864 200.57 117.12C195.898 124.8 193.562 131.904 193.562 138.432C193.562 142.848 194.33 145.056 195.866 145.056C196.826 145.056 198.106 144.192 199.706 142.464C201.306 140.8 202.458 139.456 203.162 138.432C203.866 137.472 204.442 136.64 204.89 135.936C209.562 129.088 218.074 114.304 230.426 91.584L232.922 86.976C239.834 81.6 244.634 77.504 247.322 74.688C249.37 72.512 251.802 69.888 254.618 66.816C255.578 65.664 256.058 64.48 256.058 63.264C256.058 63.008 255.994 62.88 255.866 62.88C255.738 62.88 255.578 62.976 255.386 63.168C251.61 67.456 248.314 71.072 245.498 74.016C242.874 76.384 239.546 79.2 235.514 82.464L239.354 75.744C241.21 72.544 242.394 70.464 242.906 69.504C243.29 68.8 245.018 65.76 248.09 60.384C251.226 54.944 253.242 51.424 254.138 49.824L254.906 48C254.906 47.488 254.618 47.232 254.042 47.232C252.698 47.232 251.194 47.712 249.53 48.672C247.93 49.568 246.714 50.656 245.882 51.936C242.874 56.672 239.994 60.512 237.242 63.456C232.25 69.536 227.674 74.368 223.514 77.952C222.106 79.104 221.114 79.68 220.538 79.68C220.154 79.68 219.962 79.456 219.962 79.008C219.962 77.856 222.074 73.408 226.298 65.664C227.834 62.784 229.85 59.36 232.346 55.392C234.842 51.36 236.154 49.216 236.282 48.96C236.538 48.512 236.666 48.16 236.666 47.904C236.666 47.456 236.346 47.232 235.706 47.232C234.682 47.232 233.242 47.808 231.386 48.96C229.53 50.048 227.962 51.424 226.682 53.088C224.891 55.4604 222.412 59.4609 219.244 65.0894C215.601 69.2157 212.611 72.4473 210.275 74.784L209.219 75.84C208.643 76.352 208.163 76.768 207.779 77.088C207.459 77.408 207.043 77.792 206.531 78.24C206.019 78.624 205.539 78.944 205.091 79.2C204.707 79.392 204.355 79.488 204.035 79.488C203.587 79.488 203.363 79.232 203.363 78.72C203.363 77.248 205.795 72.512 210.659 64.512C215.075 57.216 217.539 52.064 218.051 49.056C218.051 48.032 217.603 47.52 216.707 47.52C216.067 47.52 215.395 47.68 214.691 48C211.683 49.472 207.843 52.352 203.171 56.64C198.499 60.864 195.171 64.032 193.187 66.144C191.267 68.256 189.699 70.016 188.483 71.424C187.971 71.808 187.651 72 187.523 72C187.395 72 187.331 71.936 187.331 71.808C187.331 71.616 187.427 71.328 187.619 70.944C188.451 69.344 190.371 65.888 193.379 60.576C196.451 55.264 198.723 51.456 200.195 49.152C200.387 48.896 200.483 48.576 200.483 48.192C200.483 47.744 200.227 47.52 199.715 47.52C198.307 47.648 196.963 48.032 195.683 48.672C194.467 49.312 193.315 50.304 192.227 51.648C191.139 52.928 190.275 54.016 189.635 54.912C189.059 55.744 188.291 56.96 187.331 58.56L177.923 75.072L176.099 78.336C174.883 80.576 173.667 82.944 172.451 85.44C171.235 87.872 170.627 89.344 170.627 89.856C170.627 90.368 171.075 90.624 171.971 90.624C173.187 90.624 174.371 90.24 175.523 89.472C176.739 88.768 177.667 88.032 178.307 87.264C178.947 86.496 179.683 85.504 180.515 84.288L184.451 79.296C187.075 75.904 190.435 72 194.531 67.584C198.627 63.104 202.147 59.808 205.091 57.696L206.435 57.216C206.755 57.216 206.915 57.376 206.915 57.696C206.915 58.144 206.339 59.392 205.187 61.44C204.035 63.424 202.499 65.984 200.579 69.12C198.659 72.192 197.219 74.592 196.259 76.32C196.259 76.384 196.035 76.8 195.587 77.568C195.139 78.336 194.691 79.168 194.243 80.064C193.795 80.96 193.315 81.952 192.803 83.04C192.355 84.064 191.971 85.12 191.651 86.208C191.331 87.232 191.171 88.096 191.171 88.8C191.171 89.952 191.715 90.528 192.803 90.528ZM201.146 119.904C201.85 118.688 202.458 117.696 202.97 116.928C206.938 110.528 213.082 103.68 221.402 96.384C213.978 110.144 207.098 121.984 200.762 131.904L200.09 132.864C199.642 133.504 199.098 134.112 198.458 134.688C197.818 135.328 197.338 135.648 197.018 135.648C196.634 135.648 196.442 135.104 196.442 134.016C196.442 131.968 197.05 129.408 198.266 126.336C199.482 123.328 200.442 121.184 201.146 119.904ZM328.16 38.976C334.56 28.8 340.064 21.632 344.672 17.472C345.312 16.64 345.632 16.128 345.632 15.936C345.632 15.552 345.152 15.36 344.192 15.36C339.648 15.36 335.136 17.728 330.656 22.464C326.24 27.136 322.176 33.216 318.464 40.704C315.712 46.272 312.416 52.544 308.576 59.52C308.384 60.032 308.192 60.288 308 60.288C307.808 60.288 307.648 59.968 307.52 59.328C307.52 49.984 305.12 42.464 300.32 36.768C304.992 26.528 307.328 19.712 307.328 16.32C307.328 15.168 307.008 14.592 306.368 14.592C305.984 14.592 305.472 14.912 304.832 15.552L295.328 32.352C291.168 29.6 286.4 28.224 281.024 28.224C277.888 28.224 275.36 28.992 273.44 30.528C271.584 32 270.656 34.08 270.656 36.768C270.656 38.688 271.36 41.024 272.768 43.776C274.176 46.528 275.424 47.904 276.512 47.904C276.96 47.904 277.184 47.616 277.184 47.04C277.184 46.72 277.088 46.272 276.896 45.696C276.576 44.544 276.416 43.328 276.416 42.048C276.416 39.04 277.248 36.64 278.912 34.848C280.64 33.056 282.976 32.16 285.92 32.16C288.928 32.16 291.648 32.928 294.08 34.464L275.84 66.72C268.032 80.416 264 88.48 263.744 90.912L263.648 91.776C263.648 92.48 263.936 92.832 264.512 92.832C265.536 92.832 266.784 92.16 268.256 90.816C269.728 89.472 271.232 87.776 272.768 85.728C274.304 83.616 275.52 81.888 276.416 80.544C277.312 79.2 278.112 77.952 278.816 76.8C286.176 64.896 292.96 52.416 299.168 39.36C302.624 44.224 304.352 50.144 304.352 57.12C304.352 62.24 303.264 67.072 301.088 71.616L299.84 74.4C298.944 76.256 298.08 78.624 297.248 81.504C296.416 84.384 296 86.848 296 88.896C296 91.712 296.512 93.12 297.536 93.12C299.072 93.12 301.344 89.76 304.352 83.04C306.528 78.304 309.44 72.32 313.088 65.088C316.8 57.856 321.824 49.152 328.16 38.976ZM356.149 56.064C356.149 55.808 355.861 55.616 355.285 55.488C353.621 55.552 351.605 56.064 349.237 57.024C349.109 57.024 349.045 56.96 349.045 56.832C349.045 56.704 349.077 56.608 349.141 56.544C350.677 53.92 351.445 51.84 351.445 50.304C351.445 47.488 349.653 46.08 346.069 46.08C341.141 46.08 336.117 48.128 330.997 52.224C325.941 56.256 321.813 61.152 318.613 66.912C315.413 72.608 313.813 77.92 313.813 82.848C313.813 88.416 316.085 91.2 320.629 91.2C324.277 91.2 328.085 89.664 332.053 86.592C336.085 83.52 339.477 79.968 342.229 75.936C345.045 71.84 347.125 67.904 348.469 64.128L349.813 62.304C350.069 62.048 350.869 61.344 352.213 60.192C353.621 59.04 354.677 58.112 355.381 57.408C355.893 56.896 356.149 56.448 356.149 56.064ZM346.933 52.608C346.933 53.824 346.677 55.552 346.165 57.792C346.101 58.048 345.813 58.272 345.301 58.464C341.973 59.936 340.309 61.6 340.309 63.456C340.309 63.712 340.341 63.904 340.405 64.032C339.637 69.472 337.365 74.88 333.589 80.256C329.877 85.632 326.677 88.32 323.989 88.32C322.261 88.32 321.397 87.104 321.397 84.672C321.397 81.344 322.709 76.8 325.333 71.04C328.021 65.28 331.221 60.096 334.933 55.488C338.645 50.88 341.749 48.576 344.245 48.576C346.037 48.576 346.933 49.92 346.933 52.608ZM386.836 31.68C383.252 35.712 379.188 39.328 374.644 42.528C374.388 42.656 374.132 42.72 373.876 42.72C376.884 37.216 379.316 32.832 381.172 29.568C383.092 26.24 385.588 22.272 388.66 17.664C391.732 13.056 394.484 9.536 396.916 7.104C398.196 5.824 399.284 5.184 400.18 5.184C400.628 5.184 400.852 5.504 400.852 6.144C400.852 7.232 400.372 9.024 399.412 11.52C398.452 14.016 397.012 16.992 395.092 20.448C394.267 21.9548 393.266 23.531 392.088 25.1767C391.602 25.4885 391.359 25.8002 391.359 26.112C391.359 26.1316 391.36 26.1505 391.363 26.1689C390.049 27.9291 388.54 29.7661 386.836 31.68ZM396.407 26.592C395.763 27.3075 395.101 28.0115 394.42 28.704C390.644 32.544 386.932 35.904 383.284 38.784C379.7 41.664 376.596 43.84 373.972 45.312C373.588 45.44 373.236 45.728 372.916 46.176C370.1 50.72 367.348 55.616 364.66 60.864C361.972 66.048 359.956 70.144 358.612 73.152L356.692 77.568C356.372 78.528 356.212 79.168 356.212 79.488C356.212 80.064 356.436 80.352 356.884 80.352C358.164 80.352 360.66 78.496 364.372 74.784C367.06 72.096 370.612 68.224 375.028 63.168C375.22 62.976 375.38 62.88 375.508 62.88C375.636 62.88 375.7 63.008 375.7 63.264C375.7 64.48 375.22 65.664 374.26 66.816C369.524 72.064 365.332 76.448 361.684 79.968C353.684 87.52 348.596 91.296 346.42 91.296C345.46 91.296 344.98 90.624 344.98 89.28C344.98 88.576 345.076 87.808 345.268 86.976C345.396 86.144 345.652 85.248 346.036 84.288C346.42 83.264 346.74 82.432 346.996 81.792C347.316 81.088 347.732 80.128 348.244 78.912C348.82 77.632 349.204 76.768 349.396 76.32C351.188 72.288 356.692 61.664 365.908 44.448C378.516 21.472 390.1 7.36 400.66 2.112C402.196 1.344 403.732 0.960005 405.268 0.960005C407.06 0.960005 407.956 1.792 407.956 3.456C407.956 7.296 406.644 11.52 404.02 16.128C402.296 19.1131 400.324 21.9462 398.103 24.6275C399.011 24.6136 400.027 24.5964 401.151 24.576C404.287 19.648 406.975 15.744 409.215 12.864C411.199 10.368 412.575 9.12 413.343 9.12C413.791 9.12 414.015 9.408 414.015 9.984C414.015 11.328 412.799 14.208 410.367 18.624L407.103 24.576H416.991C417.567 24.576 417.855 24.736 417.855 25.056C417.855 26.08 416.927 26.592 415.071 26.592H406.047C391.263 54.624 383.487 69.312 382.719 70.656C380.031 75.584 378.687 78.784 378.687 80.256C378.687 80.704 378.847 80.928 379.167 80.928C380.063 80.928 382.655 78.88 386.943 74.784C389.631 72.096 393.183 68.224 397.599 63.168C397.791 62.976 397.951 62.88 398.079 62.88C398.207 62.88 398.271 63.008 398.271 63.264C398.271 64.48 397.791 65.664 396.831 66.816C392.095 72.064 387.903 76.448 384.255 79.968C376.575 87.392 371.487 91.104 368.991 91.104C368.095 91.104 367.647 90.528 367.647 89.376C367.647 88.032 368.159 86.016 369.183 83.328C370.207 80.64 371.231 78.272 372.255 76.224L373.791 73.248C375.263 70.624 377.695 66.144 381.087 59.808C384.479 53.472 387.743 47.488 390.879 41.856C394.079 36.224 397.087 31.136 399.903 26.592H396.407ZM0 120.635V124.28H12.285V120.455L8.28 120.32V111.5H19.35V106.91H8.28V98.945H16.065C16.635 98.945 16.995 99.05 17.145 99.26C17.295 99.47 17.37 99.83 17.37 100.34V102.14L21.96 101.825V94.355H0.225V98.18L2.79 98.315V119.24C2.79 119.99 2.355 120.41 1.485 120.5L0 120.635ZM47.3597 124.28V120.725L45.7847 120.59C45.3347 120.53 45.0347 120.425 44.8847 120.275C44.7347 120.095 44.6597 119.765 44.6597 119.285V101.645H36.7397V105.335L38.1797 105.425C38.5997 105.455 38.8847 105.575 39.0347 105.785C39.2147 105.965 39.3047 106.295 39.3047 106.775V116.27C39.3047 117.5 38.8697 118.55 37.9997 119.42C37.1597 120.29 36.0347 120.725 34.6247 120.725C33.2147 120.725 32.2847 120.32 31.8347 119.51C31.3847 118.7 31.1597 117.5 31.1597 115.91V101.645H23.2397V105.335L24.6797 105.425C25.4297 105.455 25.8047 105.875 25.8047 106.685V117.08C25.8047 122.27 28.1297 124.865 32.7797 124.865C35.9897 124.865 38.4197 123.695 40.0697 121.355V124.28H47.3597ZM58.1516 120.545V92.195H50.0966V95.93L51.6716 96.02C52.4216 96.08 52.7966 96.44 52.7966 97.1V119.285C52.7966 120.155 52.3616 120.635 51.4916 120.725L50.0066 120.86V124.28H60.7166V120.68L58.1516 120.545ZM71.5549 120.545V92.195H63.4999V95.93L65.0749 96.02C65.8249 96.08 66.1999 96.44 66.1999 97.1V119.285C66.1999 120.155 65.7649 120.635 64.8949 120.725L63.4099 120.86V124.28H74.1199V120.68L71.5549 120.545ZM100.672 115.91C100.672 118.79 98.872 120.23 95.272 120.23C93.952 120.23 92.977 120.14 92.347 119.96C91.747 119.75 91.387 119.54 91.267 119.33C91.147 119.12 91.087 118.79 91.087 118.34V115.595L86.497 115.91V123.02C89.137 124.25 92.107 124.865 95.407 124.865C98.737 124.865 101.407 124.055 103.417 122.435C105.457 120.815 106.477 118.595 106.477 115.775C106.477 112.955 105.562 110.87 103.732 109.52C102.832 108.83 101.962 108.29 101.122 107.9C100.312 107.51 99.367 107.15 98.287 106.82C97.237 106.49 96.232 106.175 95.272 105.875C94.342 105.545 93.637 105.14 93.157 104.66C92.437 103.94 92.077 103.1 92.077 102.14C92.077 100.82 92.497 99.845 93.337 99.215C94.207 98.585 95.527 98.27 97.297 98.27C99.097 98.27 100.162 98.555 100.492 99.125C100.612 99.335 100.672 99.665 100.672 100.115V102.725L105.262 102.41V95.66C102.622 94.43 99.757 93.815 96.667 93.815C93.607 93.815 91.117 94.61 89.197 96.2C87.307 97.76 86.362 99.92 86.362 102.68C86.362 105.41 87.247 107.435 89.017 108.755C89.917 109.415 90.802 109.94 91.672 110.33C92.572 110.69 93.682 111.05 95.002 111.41C96.352 111.77 97.447 112.16 98.287 112.58C99.877 113.3 100.672 114.41 100.672 115.91ZM116.903 96.875H113.978C113.378 98.495 112.718 99.755 111.998 100.655C111.278 101.525 110.213 102.02 108.803 102.14L108.353 105.425H111.548V117.44C111.548 118.34 111.563 119.03 111.593 119.51C111.623 119.96 111.758 120.59 111.998 121.4C112.238 122.21 112.583 122.825 113.033 123.245C113.483 123.665 114.173 124.04 115.103 124.37C116.033 124.73 117.173 124.91 118.523 124.91C120.833 124.91 122.738 124.385 124.238 123.335L122.888 119.87C121.868 120.5 120.848 120.815 119.828 120.815C118.838 120.815 118.103 120.56 117.623 120.05C117.143 119.51 116.903 118.58 116.903 117.26V105.425H122.438L122.888 101.645H116.903V96.875ZM146.151 119.285V102.545C143.361 101.495 140.691 100.97 138.141 100.97C134.181 100.97 131.211 102.11 129.231 104.39C127.251 106.67 126.261 109.85 126.261 113.93C126.261 117.32 126.996 119.99 128.466 121.94C129.936 123.89 132.201 124.865 135.261 124.865C137.871 124.865 139.926 123.785 141.426 121.625L141.561 121.67V124.28H148.716V120.68L147.276 120.59C146.856 120.56 146.556 120.455 146.376 120.275C146.226 120.095 146.151 119.765 146.151 119.285ZM140.931 105.47V117.125C140.931 118.145 140.511 119.06 139.671 119.87C138.831 120.65 137.751 121.04 136.431 121.04C133.311 121.04 131.751 118.61 131.751 113.75C131.751 111.08 132.201 108.935 133.101 107.315C134.001 105.695 135.456 104.885 137.466 104.885C138.936 104.885 140.091 105.08 140.931 105.47ZM158.363 118.655C157.403 117.245 156.923 115.265 156.923 112.715C156.923 107.585 158.738 105.02 162.368 105.02C162.998 105.02 163.598 105.125 164.168 105.335C164.768 105.515 165.068 106.01 165.068 106.82V108.98L169.208 108.665V102.815C166.928 101.585 164.453 100.97 161.783 100.97C159.143 100.97 156.758 101.975 154.628 103.985C152.528 105.965 151.478 108.935 151.478 112.895C151.478 116.855 152.393 119.855 154.223 121.895C156.083 123.905 158.618 124.91 161.828 124.91C165.038 124.91 167.708 124.04 169.838 122.3L167.903 118.835C166.133 120.125 164.333 120.77 162.503 120.77C160.703 120.77 159.323 120.065 158.363 118.655ZM175.23 97.325V119.24C175.23 119.78 175.125 120.155 174.915 120.365C174.705 120.545 174.375 120.665 173.925 120.725L172.44 120.86V124.28H183.15V120.68L180.585 120.545H180.54V115.55C181.59 115.4 182.61 115.19 183.6 114.92L188.73 124.28H195.3V120.68L192.555 120.545L188.145 112.625C190.395 110.855 191.715 108.44 192.105 105.38L194.265 105.29V101.645H184.95V105.155L186.66 105.245C187.23 105.245 187.515 105.5 187.515 106.01C187.515 106.19 187.47 106.43 187.38 106.73C186.93 108.14 186.09 109.28 184.86 110.15C183.63 111.02 182.19 111.53 180.54 111.68V92.195H172.53V95.93L174.105 96.02C174.525 96.05 174.81 96.155 174.96 96.335C175.14 96.515 175.23 96.845 175.23 97.325ZM233.525 120.635V124.28H246.305C250.145 124.28 253.355 123.08 255.935 120.68C257.225 119.48 258.245 117.83 258.995 115.73C259.745 113.6 260.12 111.11 260.12 108.26C260.12 103.67 258.875 100.205 256.385 97.865C253.925 95.525 250.49 94.355 246.08 94.355H233.75V98.18L236.315 98.315V119.24C236.315 119.99 235.88 120.41 235.01 120.5L233.525 120.635ZM241.805 119.96V98.72H245.81C251.66 98.72 254.585 102.17 254.585 109.07C254.585 112.61 253.865 115.31 252.425 117.17C250.985 119.03 248.975 119.96 246.395 119.96H241.805ZM280.057 102.635C278.737 101.525 276.952 100.97 274.702 100.97C271.192 100.97 268.462 102.17 266.512 104.57C264.562 106.97 263.587 109.94 263.587 113.48C263.587 117.02 264.442 119.81 266.152 121.85C267.862 123.86 270.547 124.865 274.207 124.865C276.037 124.865 277.657 124.58 279.067 124.01C280.507 123.44 281.527 122.885 282.127 122.345L280.417 118.7C278.557 120.02 276.697 120.68 274.837 120.68C272.977 120.68 271.597 120.2 270.697 119.24C269.797 118.25 269.302 116.96 269.212 115.37C271.732 115.37 273.997 115.07 276.007 114.47C277.207 114.11 278.227 113.645 279.067 113.075C279.907 112.505 280.612 111.725 281.182 110.735C281.752 109.715 282.037 108.545 282.037 107.225C282.037 105.245 281.377 103.715 280.057 102.635ZM275.692 109.97C274.762 110.63 273.742 111.065 272.632 111.275C271.552 111.455 270.352 111.56 269.032 111.59C269.122 109.73 269.617 108.14 270.517 106.82C271.417 105.47 272.707 104.795 274.387 104.795C276.187 104.795 277.087 105.71 277.087 107.54C277.087 108.47 276.622 109.28 275.692 109.97ZM308.379 101.645H298.884V105.245L301.224 105.38L296.724 120.185H296.634L291.999 105.38L294.744 105.245V101.645H284.169V105.155L285.474 105.245C285.864 105.275 286.134 105.365 286.284 105.515C286.464 105.665 286.629 105.95 286.779 106.37L293.079 124.28H299.964L305.769 106.325C305.979 105.665 306.384 105.305 306.984 105.245L308.379 105.155V101.645ZM326.947 102.635C325.627 101.525 323.842 100.97 321.592 100.97C318.082 100.97 315.352 102.17 313.402 104.57C311.452 106.97 310.477 109.94 310.477 113.48C310.477 117.02 311.332 119.81 313.042 121.85C314.752 123.86 317.437 124.865 321.097 124.865C322.927 124.865 324.547 124.58 325.957 124.01C327.397 123.44 328.417 122.885 329.017 122.345L327.307 118.7C325.447 120.02 323.587 120.68 321.727 120.68C319.867 120.68 318.487 120.2 317.587 119.24C316.687 118.25 316.192 116.96 316.102 115.37C318.622 115.37 320.887 115.07 322.897 114.47C324.097 114.11 325.117 113.645 325.957 113.075C326.797 112.505 327.502 111.725 328.072 110.735C328.642 109.715 328.927 108.545 328.927 107.225C328.927 105.245 328.267 103.715 326.947 102.635ZM322.582 109.97C321.652 110.63 320.632 111.065 319.522 111.275C318.442 111.455 317.242 111.56 315.922 111.59C316.012 109.73 316.507 108.14 317.407 106.82C318.307 105.47 319.597 104.795 321.277 104.795C323.077 104.795 323.977 105.71 323.977 107.54C323.977 108.47 323.512 109.28 322.582 109.97ZM342.714 120.68L340.149 120.545V92.195H332.094V95.93L333.669 96.02C334.419 96.08 334.794 96.44 334.794 97.1V119.285C334.794 120.155 334.359 120.635 333.489 120.725L332.004 120.86V124.28H342.714V120.68ZM360.752 113.075C360.752 118.355 359.117 120.995 355.847 120.995C354.827 120.995 353.972 120.755 353.282 120.275C351.722 119.195 350.942 116.54 350.942 112.31C350.942 110.03 351.347 108.23 352.157 106.91C352.967 105.59 354.227 104.93 355.937 104.93C357.677 104.93 358.907 105.62 359.627 107C360.377 108.38 360.752 110.405 360.752 113.075ZM346.487 107.18C345.827 108.8 345.497 110.72 345.497 112.94C345.497 116.9 346.382 119.9 348.152 121.94C349.922 123.95 352.367 124.955 355.487 124.955C358.637 124.955 361.217 123.89 363.227 121.76C365.237 119.63 366.242 116.495 366.242 112.355C366.242 110.375 365.987 108.665 365.477 107.225C364.997 105.755 364.397 104.645 363.677 103.895C362.987 103.115 362.012 102.44 360.752 101.87C359.522 101.27 358.007 100.97 356.207 100.97C353.627 100.97 351.272 101.78 349.142 103.4C348.032 104.27 347.147 105.53 346.487 107.18ZM371.791 106.775V128.555C371.791 129.095 371.686 129.455 371.476 129.635C371.266 129.845 370.936 129.98 370.486 130.04L369.001 130.175V133.595H380.611V130.04L376.966 129.86V123.65C378.376 124.52 379.981 124.955 381.781 124.955C384.811 124.955 387.211 123.875 388.981 121.715C390.751 119.555 391.636 116.45 391.636 112.4C391.636 104.78 388.921 100.97 383.491 100.97C381.751 100.97 380.251 101.345 378.991 102.095C377.731 102.845 376.861 103.67 376.381 104.57V101.645H368.776V105.29L370.666 105.425C371.086 105.425 371.371 105.53 371.521 105.74C371.701 105.92 371.791 106.265 371.791 106.775ZM381.511 105.335C384.541 105.335 386.056 107.84 386.056 112.85C386.056 115.07 385.636 116.93 384.796 118.43C383.986 119.93 382.756 120.68 381.106 120.68C379.486 120.68 378.106 120.305 376.966 119.555V109.205C376.966 108.155 377.401 107.255 378.271 106.505C379.171 105.725 380.251 105.335 381.511 105.335ZM411.498 102.635C410.178 101.525 408.393 100.97 406.143 100.97C402.633 100.97 399.903 102.17 397.953 104.57C396.003 106.97 395.028 109.94 395.028 113.48C395.028 117.02 395.883 119.81 397.593 121.85C399.303 123.86 401.988 124.865 405.648 124.865C407.478 124.865 409.098 124.58 410.508 124.01C411.948 123.44 412.968 122.885 413.568 122.345L411.858 118.7C409.998 120.02 408.138 120.68 406.278 120.68C404.418 120.68 403.038 120.2 402.138 119.24C401.238 118.25 400.743 116.96 400.653 115.37C403.173 115.37 405.438 115.07 407.448 114.47C408.648 114.11 409.668 113.645 410.508 113.075C411.348 112.505 412.053 111.725 412.623 110.735C413.193 109.715 413.478 108.545 413.478 107.225C413.478 105.245 412.818 103.715 411.498 102.635ZM407.133 109.97C406.203 110.63 405.183 111.065 404.073 111.275C402.993 111.455 401.793 111.56 400.473 111.59C400.563 109.73 401.058 108.14 401.958 106.82C402.858 105.47 404.148 104.795 405.828 104.795C407.628 104.795 408.528 105.71 408.528 107.54C408.528 108.47 408.063 109.28 407.133 109.97ZM419.434 106.775V119.24C419.434 119.78 419.329 120.155 419.119 120.365C418.909 120.545 418.579 120.665 418.129 120.725L416.644 120.86V124.28H428.704V120.725L424.789 120.545V110.105C424.789 108.785 425.164 107.705 425.914 106.865C426.694 105.995 427.684 105.56 428.884 105.56C429.364 105.56 429.769 105.635 430.099 105.785C430.399 105.935 430.549 106.31 430.549 106.91V108.98L434.734 108.665V101.96C433.384 101.3 431.959 100.97 430.459 100.97C428.989 100.97 427.684 101.36 426.544 102.14C425.404 102.89 424.564 103.85 424.024 105.02V101.645H416.419V105.29L418.309 105.425C418.729 105.455 419.014 105.575 419.164 105.785C419.344 105.965 419.434 106.295 419.434 106.775Z" fill="#021503"/>
</svg>
